<svg xmlns="http://www.w3.org/2000/svg" viewBox="0 0 900 1150">
  <defs>
    <linearGradient id="denimBody" x1="0" y1="0" x2="0" y2="1">
      <stop offset="0%" stop-color="#3f78ab"/>
      <stop offset="45%" stop-color="#2e6091"/>
      <stop offset="100%" stop-color="#1f466f"/>
    </linearGradient>
    <linearGradient id="leftPanel" x1="0" y1="0" x2="1" y2="1">
      <stop offset="0%" stop-color="#3c74a7"/>
      <stop offset="100%" stop-color="#2a567f"/>
    </linearGradient>
    <linearGradient id="rightPanel" x1="1" y1="0" x2="0" y2="1">
      <stop offset="0%" stop-color="#396d9d"/>
      <stop offset="100%" stop-color="#2a5278"/>
    </linearGradient>
    <radialGradient id="fabricLight" cx="50%" cy="28%" r="60%">
      <stop offset="0%" stop-color="#85b5df" stop-opacity="0.3"/>
      <stop offset="100%" stop-color="#85b5df" stop-opacity="0"/>
    </radialGradient>
  </defs>

  <path d="M265 220 L355 120 Q450 60 545 120 L635 220 L810 310 L742 470 L650 430 L610 1080 L290 1080 L250 430 L158 470 L90 310 Z"
        fill="url(#denimBody)" stroke="#d8ecff" stroke-opacity="0.24" stroke-width="10"/>

  <path d="M265 220 L445 220 L450 1080 L290 1080 L250 430 L158 470 L90 310 Z"
        fill="url(#leftPanel)" fill-opacity="0.68"/>
  <path d="M635 220 L455 220 L450 1080 L610 1080 L650 430 L742 470 L810 310 Z"
        fill="url(#rightPanel)" fill-opacity="0.68"/>
  <ellipse cx="450" cy="340" rx="280" ry="220" fill="url(#fabricLight)"/>

  <path d="M360 122 Q450 84 540 122 Q520 210 450 236 Q380 210 360 122 Z"
        fill="#163653" fill-opacity="0.95"/>
  <rect x="431" y="238" width="38" height="842" rx="12" fill="#a6cae8" fill-opacity="0.22"/>

  <path d="M166 308 L255 248 L250 430 L158 470 Z" fill="#2a557f" fill-opacity="0.62"/>
  <path d="M734 308 L645 248 L650 430 L742 470 Z" fill="#2a557f" fill-opacity="0.62"/>

  <circle cx="450" cy="360" r="11" fill="#d8e8f7" fill-opacity="0.7"/>
  <circle cx="450" cy="452" r="11" fill="#d8e8f7" fill-opacity="0.63"/>
  <circle cx="450" cy="544" r="11" fill="#d8e8f7" fill-opacity="0.56"/>
</svg>
